<svg xmlns="http://www.w3.org/2000/svg" width="48" height="49" viewBox="0 0 48 49" fill="none">
  <path d="M20.448 8.4335C19.5285 8.627 17.7135 9.281 16.455 9.9095C14.5425 10.829 13.8165 11.3615 12.0735 13.1045C10.3305 14.8475 9.79798 15.5735 8.87848 17.486C6.40948 22.5455 6.40948 27.386 8.87848 32.4935C9.79798 34.43 10.3065 35.132 12.0735 36.875C13.8405 38.642 14.5185 39.1265 16.455 40.07C19.4085 41.474 20.8365 41.813 23.958 41.813C27.0795 41.813 28.509 41.474 31.461 40.07C33.3735 39.1505 34.0515 38.642 35.8425 36.875C37.6095 35.084 38.118 34.406 39.0375 32.4935C40.1985 30.0485 40.5375 28.9115 40.8045 26.4905L40.974 24.9905H36.1815L35.8665 26.855C34.341 36.5615 22.506 40.4585 15.486 33.56C9.79798 27.992 11.0325 18.5525 18.003 14.462C19.3095 13.688 21.948 12.8885 23.1585 12.8885H23.9565V8.048L23.061 8.072C22.5525 8.072 21.3915 8.2415 20.4465 8.435L20.448 8.4335ZM21.3195 14.9675C16.188 16.3475 12.8475 21.455 13.719 26.585C14.712 32.273 20.037 36.17 25.5555 35.2265C31.2195 34.259 35.1405 28.9085 34.197 23.438C33.132 17.2655 27.2265 13.3685 21.3195 14.966V14.9675Z" fill="white"/>
</svg>